<?xml version="1.0" encoding="utf-8"?>
<!-- Generator: Adobe Illustrator 15.1.0, SVG Export Plug-In . SVG Version: 6.00 Build 0)  -->
<!DOCTYPE svg PUBLIC "-//W3C//DTD SVG 1.0//EN" "http://www.w3.org/TR/2001/REC-SVG-20010904/DTD/svg10.dtd">
<svg version="1.0" id="Layer_1" xmlns="http://www.w3.org/2000/svg" xmlns:xlink="http://www.w3.org/1999/xlink" x="0px" y="0px"
	 width="297.908px" height="191.043px" viewBox="0 0 297.908 191.043" enable-background="new 0 0 297.908 191.043"
	 xml:space="preserve">
<g>
	<polygon fill="#9D9D9C" points="148.968,0 71.328,133.198 82.258,133.198 130.564,50.312 95.975,133.198 105.992,133.198 
		137.597,57.477 120.421,133.198 129.723,133.198 144.479,68.155 144.479,133.198 153.458,133.198 153.458,68.146 168.201,133.198 
		177.503,133.198 160.339,57.483 191.947,133.198 201.961,133.198 167.373,50.319 215.678,133.198 226.596,133.198 	"/>
	<path fill="#9D9D9C" d="M169.172,158.501h-5.125c-0.295,0-0.533,0.239-0.533,0.534v22.003c0,2.691-0.764,3.601-3.03,3.601h-13.308
		c-2.372,0-3.173-0.874-3.173-3.458v-22.146c0-0.295-0.238-0.534-0.534-0.534h-5.124c-0.294,0-0.534,0.239-0.534,0.534v22.146
		c0,5.774,3.501,9.22,9.364,9.22h13.308c5.774,0,9.222-3.499,9.222-9.362v-22.003C169.706,158.74,169.467,158.501,169.172,158.501z"
		/>
	<path fill="#9D9D9C" d="M75.295,179.772c4.268-0.892,6.692-4.165,6.692-9.108v-2.934c0-5.774-3.502-9.222-9.364-9.222
		l-21.722-0.008c-0.142,0-0.278,0.057-0.378,0.156c-0.1,0.101-0.155,0.235-0.155,0.378v30.795c0,0.296,0.237,0.533,0.533,0.533
		h5.124c0.295,0,0.534-0.237,0.534-0.533v-9.801h11.673l7.771,10.149c0.101,0.132,0.257,0.209,0.424,0.209h5.915
		c0.003,0,0.007,0.001,0.008,0c0.295,0,0.535-0.239,0.535-0.534c0-0.152-0.064-0.289-0.167-0.387L75.295,179.772z M72.766,174.264
		H56.559v-9.989h16.064c2.372,0,3.172,0.872,3.172,3.456v2.934C75.795,173.355,75.031,174.264,72.766,174.264z"/>
	<path fill="#9D9D9C" d="M259.733,158.501h-6.615c-0.148,0-0.29,0.062-0.391,0.171l-12.613,15.635L227.5,158.672
		c-0.1-0.109-0.242-0.171-0.391-0.171h-6.616c-0.213,0-0.405,0.126-0.489,0.322c-0.085,0.196-0.045,0.423,0.102,0.578l16.912,19.987
		v10.465c0,0.295,0.239,0.534,0.533,0.534h5.125c0.294,0,0.533-0.239,0.533-0.534v-10.465l16.912-19.987
		c0.146-0.155,0.187-0.382,0.102-0.578C260.139,158.627,259.947,158.501,259.733,158.501z"/>
	<path fill="#9D9D9C" d="M22.888,158.777c-0.095-0.171-0.272-0.276-0.467-0.276h-4.85c-0.194,0-0.373,0.105-0.468,0.276
		L0.067,189.596c-0.092,0.165-0.089,0.367,0.006,0.529c0.097,0.163,0.271,0.263,0.46,0.263H5.9c0.195,0,0.374-0.106,0.468-0.275
		l3.094-5.597h21.083l3.098,5.598c0.094,0.168,0.272,0.274,0.467,0.274h5.368c0.002,0,0.006,0.001,0.008,0
		c0.295,0,0.534-0.239,0.534-0.534c0-0.125-0.043-0.24-0.117-0.332L22.888,158.777z M12.533,178.961l7.465-13.504l7.473,13.504
		H12.533z"/>
	<path fill="#9D9D9C" d="M205.239,172.357c-1.481-0.177-11.879-1.376-13.127-1.524c-3.542-0.424-3.542-1.175-3.542-2.96
		c0-4.228,4.135-4.026,9.044-4.026c6.058,0,10.828,0.431,13.259,1.312c0.271,0.1,0.571-0.037,0.678-0.305l1.642-4.125
		c0.053-0.135,0.05-0.285-0.01-0.417c-0.059-0.131-0.169-0.233-0.305-0.283c-3.137-1.137-6.703-1.946-15.264-1.946
		c-9.554,0-15.234,1.489-15.234,9.79c0,7.01,5.135,8.434,8.998,8.894c1.78,0.213,12.171,1.411,13.127,1.525
		c3.542,0.423,3.542,1.175,3.542,2.96c0,4.227-5.201,4.026-10.111,4.026c-6.058,0-10.613-0.431-13.044-1.312
		c-0.271-0.101-0.572,0.036-0.679,0.305l-1.642,4.125c-0.053,0.135-0.05,0.284,0.01,0.417c0.059,0.131,0.169,0.233,0.305,0.283
		c3.137,1.137,6.489,1.947,15.05,1.947c9.555,0,16.303-1.491,16.303-9.791C214.238,174.243,209.102,172.818,205.239,172.357z"/>
	<path fill="#9D9D9C" d="M110.706,163.847c6.058,0,10.187,0.431,12.618,1.312c0.271,0.1,0.571-0.037,0.678-0.305l1.642-4.125
		c0.053-0.135,0.049-0.285-0.01-0.417c-0.059-0.131-0.169-0.233-0.305-0.283c-3.137-1.137-6.062-1.946-14.623-1.946
		c-9.517,0-15.188,1.48-15.233,9.694c0,0.004-0.001,0.008-0.001,0.011c0,0,0,13.449,0,13.464c0,8.3,5.681,9.791,15.235,9.791
		c8.561,0,11.485-0.811,14.623-1.947c0.136-0.05,0.246-0.152,0.305-0.283c0.059-0.133,0.062-0.282,0.01-0.417l-1.642-4.125
		c-0.106-0.269-0.407-0.405-0.678-0.305c-2.431,0.882-6.56,1.312-12.618,1.312c-4.909,0-9.044,0.2-9.044-4.026
		c0-0.01,0-13.379,0-13.379C101.662,163.646,105.796,163.847,110.706,163.847z"/>
	<path fill="#9D9D9C" d="M288.909,172.357c-1.481-0.177-11.878-1.376-13.127-1.524c-3.541-0.424-3.541-1.175-3.541-2.96
		c0-4.228,4.134-4.026,9.043-4.026c6.059,0,10.827,0.431,13.259,1.312c0.271,0.1,0.57-0.037,0.677-0.305l1.642-4.125
		c0.054-0.135,0.051-0.285-0.009-0.417c-0.059-0.131-0.169-0.233-0.305-0.283c-3.137-1.137-6.703-1.946-15.264-1.946
		c-9.555,0-15.234,1.489-15.234,9.79c0,7.01,5.136,8.434,8.999,8.894c1.779,0.213,12.17,1.411,13.127,1.525
		c3.541,0.423,3.541,1.175,3.541,2.96c0,4.227-5.202,4.026-10.111,4.026c-6.058,0-10.614-0.431-13.045-1.312
		c-0.271-0.101-0.571,0.036-0.677,0.305l-1.642,4.125c-0.054,0.135-0.051,0.284,0.009,0.417c0.059,0.131,0.169,0.233,0.305,0.283
		c3.137,1.137,6.49,1.947,15.05,1.947c9.555,0,16.303-1.491,16.303-9.791C297.908,174.243,292.772,172.818,288.909,172.357z"/>
</g>
</svg>
